<mxfile host="app.diagrams.net" modified="2021-05-18T05:57:30.337Z" agent="5.0 (Macintosh; Intel Mac OS X 10_15_7) AppleWebKit/537.36 (KHTML, like Gecko) Chrome/86.0.4240.193 Safari/537.36" etag="O8oJYosJy3KyIEtKeXid" version="14.6.13" type="github">
  <diagram id="dmptoUhVElFsvyss6TJ9" name="Page-1">
    <mxGraphModel dx="946" dy="536" grid="1" gridSize="10" guides="1" tooltips="1" connect="1" arrows="1" fold="1" page="1" pageScale="1" pageWidth="827" pageHeight="1169" math="0" shadow="0">
      <root>
        <mxCell id="0" />
        <mxCell id="1" parent="0" />
        <mxCell id="VmqIFKyUQbiOCse_WFED-1" value="" style="rounded=1;whiteSpace=wrap;html=1;" vertex="1" parent="1">
          <mxGeometry x="260" y="100" width="300" height="340" as="geometry" />
        </mxCell>
        <mxCell id="VmqIFKyUQbiOCse_WFED-2" value="NameServer" style="text;html=1;strokeColor=none;fillColor=none;align=center;verticalAlign=middle;whiteSpace=wrap;rounded=0;" vertex="1" parent="1">
          <mxGeometry x="369" y="110" width="90" height="20" as="geometry" />
        </mxCell>
        <mxCell id="VmqIFKyUQbiOCse_WFED-3" value="&lt;pre&gt;RouteInfoManager&lt;/pre&gt;&lt;pre&gt;保存了topic对应的broker信息&lt;/pre&gt;" style="rounded=1;whiteSpace=wrap;html=1;" vertex="1" parent="1">
          <mxGeometry x="296.25" y="140" width="227.5" height="80" as="geometry" />
        </mxCell>
        <mxCell id="VmqIFKyUQbiOCse_WFED-4" value="&lt;pre&gt;&lt;pre&gt;&lt;br&gt;&lt;/pre&gt;&lt;/pre&gt;" style="rounded=1;whiteSpace=wrap;html=1;" vertex="1" parent="1">
          <mxGeometry x="293.75" y="240" width="230" height="170" as="geometry" />
        </mxCell>
        <mxCell id="VmqIFKyUQbiOCse_WFED-5" value="&lt;pre&gt;NettyRemotingServer&lt;/pre&gt;" style="text;html=1;strokeColor=none;fillColor=none;align=center;verticalAlign=middle;whiteSpace=wrap;rounded=0;" vertex="1" parent="1">
          <mxGeometry x="315" y="270" width="180" height="20" as="geometry" />
        </mxCell>
        <mxCell id="VmqIFKyUQbiOCse_WFED-6" value="&lt;pre&gt;DefaultRequestProcessor&lt;/pre&gt;&lt;pre&gt;NameServer的所有请求类型&lt;/pre&gt;&lt;pre&gt;都会交给这一个处理器&lt;/pre&gt;" style="rounded=1;whiteSpace=wrap;html=1;" vertex="1" parent="1">
          <mxGeometry x="310" y="310" width="200" height="80" as="geometry" />
        </mxCell>
      </root>
    </mxGraphModel>
  </diagram>
</mxfile>
